<svg xmlns="http://www.w3.org/2000/svg" width="1160" height="720" viewBox="0 0 1160 720" fill="none">
  <rect width="1160" height="720" fill="#0B1120"/>
  <rect x="60" y="56" width="1040" height="608" rx="28" fill="#091224" stroke="#1E293B"/>
  <rect x="92" y="92" width="976" height="44" rx="12" fill="#111C32"/>
  <circle cx="118" cy="114" r="7" fill="#F87171"/>
  <circle cx="142" cy="114" r="7" fill="#FBBF24"/>
  <circle cx="166" cy="114" r="7" fill="#34D399"/>
  <text x="196" y="120" fill="#93C5FD" font-family="Menlo, Monaco, monospace" font-size="18">zerion wallet analyze vitalik.eth</text>
  <text x="110" y="182" fill="#E2E8F0" font-family="Menlo, Monaco, monospace" font-size="28">wallet-analysis</text>
  <text x="110" y="220" fill="#94A3B8" font-family="Menlo, Monaco, monospace" font-size="20">query: vitalik.eth</text>
  <text x="110" y="254" fill="#94A3B8" font-family="Menlo, Monaco, monospace" font-size="20">resolved_address: 0xd8dA...96045</text>
  <rect x="110" y="296" width="286" height="124" rx="16" fill="#111C32" stroke="#1E293B"/>
  <text x="134" y="332" fill="#60A5FA" font-family="Menlo, Monaco, monospace" font-size="18">portfolio</text>
  <text x="134" y="374" fill="#F8FAFC" font-family="Menlo, Monaco, monospace" font-size="38">$450,000</text>
  <text x="134" y="404" fill="#94A3B8" font-family="Menlo, Monaco, monospace" font-size="18">currency: usd</text>
  <rect x="430" y="296" width="286" height="124" rx="16" fill="#111C32" stroke="#1E293B"/>
  <text x="454" y="332" fill="#60A5FA" font-family="Menlo, Monaco, monospace" font-size="18">positions</text>
  <text x="454" y="374" fill="#F8FAFC" font-family="Menlo, Monaco, monospace" font-size="38">42</text>
  <text x="454" y="404" fill="#94A3B8" font-family="Menlo, Monaco, monospace" font-size="18">fungible + DeFi</text>
  <rect x="750" y="296" width="286" height="124" rx="16" fill="#111C32" stroke="#1E293B"/>
  <text x="774" y="332" fill="#60A5FA" font-family="Menlo, Monaco, monospace" font-size="18">transactions</text>
  <text x="774" y="374" fill="#F8FAFC" font-family="Menlo, Monaco, monospace" font-size="38">10</text>
  <text x="774" y="404" fill="#94A3B8" font-family="Menlo, Monaco, monospace" font-size="18">recent sampled rows</text>
  <rect x="110" y="462" width="926" height="152" rx="16" fill="#111C32" stroke="#1E293B"/>
  <text x="134" y="498" fill="#60A5FA" font-family="Menlo, Monaco, monospace" font-size="18">summary</text>
  <text x="134" y="538" fill="#E2E8F0" font-family="Menlo, Monaco, monospace" font-size="20">Top wallet context for agents:</text>
  <text x="134" y="572" fill="#94A3B8" font-family="Menlo, Monaco, monospace" font-size="20">- portfolio overview from /wallets/{address}/portfolio</text>
  <text x="134" y="602" fill="#94A3B8" font-family="Menlo, Monaco, monospace" font-size="20">- positions from /wallets/{address}/positions/</text>
  <text x="584" y="572" fill="#94A3B8" font-family="Menlo, Monaco, monospace" font-size="20">- transactions from /wallets/{address}/transactions/</text>
  <text x="584" y="602" fill="#94A3B8" font-family="Menlo, Monaco, monospace" font-size="20">- P&amp;L from /wallets/{address}/pnl</text>
</svg>
